<svg width="24" height="24" viewBox="0 0 24 24" fill="none" xmlns="http://www.w3.org/2000/svg">
<path d="M12 21C16.9706 21 21 16.9706 21 12C21 7.02944 16.9706 3 12 3C7.02944 3 3 7.02944 3 12C3 16.9706 7.02944 21 12 21Z" stroke="white" stroke-width="1.5" stroke-linecap="round" stroke-linejoin="round"/>
<path fill-rule="evenodd" clip-rule="evenodd" d="M13.9314 13.8552C14.4667 13.6703 14.9183 13.4141 15.2679 13.0752L15.2725 13.0707C15.6085 12.7347 15.8546 12.3509 16.0024 11.9204C16.153 11.5072 16.2277 11.0748 16.2277 10.6259C16.2277 9.62659 15.9068 8.79949 15.2266 8.20365C14.5411 7.59397 13.5041 7.33337 12.2102 7.33337H9.52513C9.29343 7.33337 9.10559 7.52121 9.10559 7.75292V17.3386C9.10559 17.5703 9.29343 17.7582 9.52513 17.7582H10.9751C11.2068 17.7582 11.3946 17.5703 11.3946 17.3386V14.1199H12.0088C12.7448 14.1199 13.388 14.0364 13.9271 13.8567L13.9314 13.8552ZM15.8082 10.6259C15.8082 11.0287 15.7411 11.4136 15.6068 11.7805C15.4815 12.1475 15.2712 12.4786 14.9758 12.774C14.6805 13.0604 14.2867 13.2886 13.7944 13.4587C13.3111 13.6198 12.7159 13.7003 12.0088 13.7003H10.9751V17.3386H9.52513V17.3386H10.9751V13.7003H12.0088C12.7159 13.7003 13.3111 13.6198 13.7944 13.4587C14.2866 13.2886 14.6805 13.0604 14.9758 12.774C15.2712 12.4786 15.4815 12.1475 15.6068 11.7805C15.7411 11.4135 15.8082 11.0287 15.8082 10.6259C15.8082 9.97273 15.6586 9.42468 15.3596 8.98177C15.6587 9.42468 15.8082 9.97274 15.8082 10.6259ZM13.8984 10.6796C13.8984 11.0497 13.8177 11.3072 13.6923 11.4862L13.6907 11.4886C13.5741 11.6576 13.3851 11.8026 13.0859 11.9056C12.7737 12.0039 12.3647 12.0591 11.8477 12.0591H11.3946V9.39417H12.1028C12.8378 9.39417 13.2778 9.53428 13.5147 9.7287L13.524 9.73585C13.7529 9.91329 13.8984 10.1988 13.8984 10.6796ZM10.9751 12.4786V8.97462H12.1028C12.7991 8.97462 13.3233 9.09183 13.6754 9.32623C13.3233 9.09182 12.7991 8.97461 12.1028 8.97461H10.9751V12.4786H10.9751ZM13.781 9.40422C13.7755 9.39975 13.77 9.39532 13.7645 9.39091L13.781 9.40422Z" fill="white"/>
</svg>
